<svg xmlns="http://www.w3.org/2000/svg" viewBox="0 0 1400 1000" width="1400" height="1000" role="img"><defs><filter id="grain"><feTurbulence type="fractalNoise" baseFrequency="0.9" numOctaves="2" result="n"/><feColorMatrix type="saturate" values="0"/><feComponentTransfer><feFuncA type="linear" slope="0.05"/></feComponentTransfer><feComposite operator="in" in2="SourceGraphic"/></filter></defs><rect width="1400" height="1000" fill="#EDE4D8"/><rect x="28" y="45" width="86" height="270" rx="43" fill="#3A2A20" opacity="0.055"/><rect x="24" y="315" width="94" height="3" fill="#3A2A20" opacity="0.07"/><rect x="184" y="45" width="86" height="270" rx="43" fill="#3A2A20" opacity="0.055"/><rect x="180" y="315" width="94" height="3" fill="#3A2A20" opacity="0.07"/><rect x="340" y="45" width="86" height="270" rx="43" fill="#3A2A20" opacity="0.055"/><rect x="336" y="315" width="94" height="3" fill="#3A2A20" opacity="0.07"/><rect x="496" y="45" width="86" height="270" rx="43" fill="#3A2A20" opacity="0.055"/><rect x="492" y="315" width="94" height="3" fill="#3A2A20" opacity="0.07"/><rect x="652" y="45" width="86" height="270" rx="43" fill="#3A2A20" opacity="0.055"/><rect x="648" y="315" width="94" height="3" fill="#3A2A20" opacity="0.07"/><rect x="808" y="45" width="86" height="270" rx="43" fill="#3A2A20" opacity="0.055"/><rect x="804" y="315" width="94" height="3" fill="#3A2A20" opacity="0.07"/><rect x="964" y="45" width="86" height="270" rx="43" fill="#3A2A20" opacity="0.055"/><rect x="960" y="315" width="94" height="3" fill="#3A2A20" opacity="0.07"/><rect x="1120" y="45" width="86" height="270" rx="43" fill="#3A2A20" opacity="0.055"/><rect x="1116" y="315" width="94" height="3" fill="#3A2A20" opacity="0.07"/><rect x="1276" y="45" width="86" height="270" rx="43" fill="#3A2A20" opacity="0.055"/><rect x="1272" y="315" width="94" height="3" fill="#3A2A20" opacity="0.07"/><rect x="0" y="360" width="1400" height="2" fill="#3A2A20" opacity="0.07"/><path d="M840 400 L1344 400 L1316 500 L868 500 Z" fill="#5E2130" opacity="0.30"/><rect x="0" y="865" width="1400" height="135" fill="#3A2A20" opacity="0.08"/><rect x="0" y="865" width="1400" height="2" fill="#3A2A20" opacity="0.10"/><rect x="1006" y="625" width="32" height="240" rx="14" fill="#C3AE99" opacity="0.75"/><rect x="1004" y="775" width="36" height="90" rx="12" fill="#3A2A20"/><rect x="1080" y="625" width="32" height="240" rx="14" fill="#C3AE99" opacity="0.75"/><rect x="1078" y="775" width="36" height="90" rx="12" fill="#3A2A20"/><ellipse cx="1064" cy="873" rx="110" ry="14" fill="#3A2A20" opacity="0.12"/><path d="M990 345 C 978 450, 968 570, 960 645 L1168 645 C 1160 570, 1150 450, 1138 345 C 1104 321, 1024 321, 990 345 Z" fill="#5C4638"/><path d="M1038 331 L1090 331 L1082 645 L1046 645 Z" fill="#3A2A20" opacity="0.35"/><rect x="978" y="475" width="172" height="15" fill="#3A2A20" opacity="0.45"/><rect x="1049" y="285" width="30" height="40" fill="#C3AE99"/><circle cx="1064" cy="255" r="42" fill="#C3AE99"/><path d="M1018 265 C 1012 195, 1116 195, 1110 265 C 1118 325, 1098 335, 1096 295 L1032 295 C 1030 335, 1010 325, 1018 265 Z" fill="#3A2A20"/><path d="M1128 350 C 1152 440, 1148 500, 1134 545" fill="none" stroke="#5C4638" stroke-width="34" stroke-linecap="round"/><path d="M1114 440 C 1138 500, 1164 500, 1170 513" fill="none" stroke="#471824" stroke-width="9" stroke-linecap="round"/><path d="M1096 513 L1244 513 L1232 637 L1108 637 Z" fill="#5E2130"/><path d="M1096 513 L1244 513 L1239 566 L1101 566 Z" fill="#471824"/><circle cx="1204" cy="160" r="200" fill="#FBF7F1" opacity="0.26"/><circle cx="1232" cy="140" r="90" fill="#FBF7F1" opacity="0.22"/><rect width="1400" height="1000" filter="url(#grain)" fill="#3A2A20" opacity="0.5"/></svg>