<svg xmlns="http://www.w3.org/2000/svg" viewBox="0 0 1800 850" width="1800" height="850" role="img"><defs><filter id="grain"><feTurbulence type="fractalNoise" baseFrequency="0.9" numOctaves="2" result="n"/><feColorMatrix type="saturate" values="0"/><feComponentTransfer><feFuncA type="linear" slope="0.05"/></feComponentTransfer><feComposite operator="in" in2="SourceGraphic"/></filter></defs><rect width="1800" height="850" fill="#EDE4D8"/><rect x="36" y="38" width="111" height="229" rx="55" fill="#3A2A20" opacity="0.055"/><rect x="32" y="267" width="119" height="3" fill="#3A2A20" opacity="0.07"/><rect x="237" y="38" width="111" height="229" rx="55" fill="#3A2A20" opacity="0.055"/><rect x="233" y="267" width="119" height="3" fill="#3A2A20" opacity="0.07"/><rect x="438" y="38" width="111" height="229" rx="55" fill="#3A2A20" opacity="0.055"/><rect x="434" y="267" width="119" height="3" fill="#3A2A20" opacity="0.07"/><rect x="639" y="38" width="111" height="229" rx="55" fill="#3A2A20" opacity="0.055"/><rect x="635" y="267" width="119" height="3" fill="#3A2A20" opacity="0.07"/><rect x="840" y="38" width="111" height="229" rx="55" fill="#3A2A20" opacity="0.055"/><rect x="836" y="267" width="119" height="3" fill="#3A2A20" opacity="0.07"/><rect x="1041" y="38" width="111" height="229" rx="55" fill="#3A2A20" opacity="0.055"/><rect x="1037" y="267" width="119" height="3" fill="#3A2A20" opacity="0.07"/><rect x="1242" y="38" width="111" height="229" rx="55" fill="#3A2A20" opacity="0.055"/><rect x="1238" y="267" width="119" height="3" fill="#3A2A20" opacity="0.07"/><rect x="1443" y="38" width="111" height="229" rx="55" fill="#3A2A20" opacity="0.055"/><rect x="1439" y="267" width="119" height="3" fill="#3A2A20" opacity="0.07"/><rect x="1644" y="38" width="111" height="229" rx="55" fill="#3A2A20" opacity="0.055"/><rect x="1640" y="267" width="119" height="3" fill="#3A2A20" opacity="0.07"/><rect x="0" y="306" width="1800" height="2" fill="#3A2A20" opacity="0.07"/><path d="M1080 340 L1728 340 L1692 425 L1116 425 Z" fill="#5E2130" opacity="0.30"/><rect x="0" y="735" width="1800" height="115" fill="#3A2A20" opacity="0.08"/><rect x="0" y="735" width="1800" height="2" fill="#3A2A20" opacity="0.10"/><rect x="1320" y="531" width="27" height="204" rx="11" fill="#C3AE99" opacity="0.75"/><rect x="1318" y="659" width="30" height="76" rx="10" fill="#3A2A20"/><rect x="1382" y="531" width="27" height="204" rx="11" fill="#C3AE99" opacity="0.75"/><rect x="1380" y="659" width="30" height="76" rx="10" fill="#3A2A20"/><ellipse cx="1368" cy="741" rx="93" ry="11" fill="#3A2A20" opacity="0.12"/><path d="M1306 293 C 1295 382, 1287 484, 1280 548 L1456 548 C 1449 484, 1441 382, 1430 293 C 1402 273, 1334 273, 1306 293 Z" fill="#5C4638"/><path d="M1346 282 L1390 282 L1383 548 L1353 548 Z" fill="#3A2A20" opacity="0.35"/><rect x="1295" y="403" width="146" height="12" fill="#3A2A20" opacity="0.45"/><rect x="1356" y="241" width="25" height="34" fill="#C3AE99"/><circle cx="1368" cy="216" r="35" fill="#C3AE99"/><path d="M1329 224 C 1324 165, 1412 165, 1407 224 C 1413 275, 1396 284, 1395 250 L1341 250 C 1340 284, 1323 275, 1329 224 Z" fill="#3A2A20"/><path d="M1422 297 C 1442 374, 1439 425, 1428 463" fill="none" stroke="#5C4638" stroke-width="28" stroke-linecap="round"/><path d="M1411 374 C 1431 425, 1453 425, 1458 436" fill="none" stroke="#471824" stroke-width="7" stroke-linecap="round"/><path d="M1396 436 L1520 436 L1510 540 L1406 540 Z" fill="#5E2130"/><path d="M1396 436 L1520 436 L1516 481 L1400 481 Z" fill="#471824"/><circle cx="1548" cy="136" r="170" fill="#FBF7F1" opacity="0.26"/><circle cx="1584" cy="119" r="76" fill="#FBF7F1" opacity="0.22"/><rect width="1800" height="850" filter="url(#grain)" fill="#3A2A20" opacity="0.5"/></svg>