<svg xmlns="http://www.w3.org/2000/svg" viewBox="0 0 1800 1000" width="1800" height="1000" role="img"><defs><filter id="grain"><feTurbulence type="fractalNoise" baseFrequency="0.9" numOctaves="2" result="n"/><feColorMatrix type="saturate" values="0"/><feComponentTransfer><feFuncA type="linear" slope="0.05"/></feComponentTransfer><feComposite operator="in" in2="SourceGraphic"/></filter></defs><rect width="1800" height="1000" fill="#E4D8C8"/><rect x="36" y="45" width="111" height="270" rx="55" fill="#3A2A20" opacity="0.055"/><rect x="32" y="315" width="119" height="3" fill="#3A2A20" opacity="0.07"/><rect x="237" y="45" width="111" height="270" rx="55" fill="#3A2A20" opacity="0.055"/><rect x="233" y="315" width="119" height="3" fill="#3A2A20" opacity="0.07"/><rect x="438" y="45" width="111" height="270" rx="55" fill="#3A2A20" opacity="0.055"/><rect x="434" y="315" width="119" height="3" fill="#3A2A20" opacity="0.07"/><rect x="639" y="45" width="111" height="270" rx="55" fill="#3A2A20" opacity="0.055"/><rect x="635" y="315" width="119" height="3" fill="#3A2A20" opacity="0.07"/><rect x="840" y="45" width="111" height="270" rx="55" fill="#3A2A20" opacity="0.055"/><rect x="836" y="315" width="119" height="3" fill="#3A2A20" opacity="0.07"/><rect x="1041" y="45" width="111" height="270" rx="55" fill="#3A2A20" opacity="0.055"/><rect x="1037" y="315" width="119" height="3" fill="#3A2A20" opacity="0.07"/><rect x="1242" y="45" width="111" height="270" rx="55" fill="#3A2A20" opacity="0.055"/><rect x="1238" y="315" width="119" height="3" fill="#3A2A20" opacity="0.07"/><rect x="1443" y="45" width="111" height="270" rx="55" fill="#3A2A20" opacity="0.055"/><rect x="1439" y="315" width="119" height="3" fill="#3A2A20" opacity="0.07"/><rect x="1644" y="45" width="111" height="270" rx="55" fill="#3A2A20" opacity="0.055"/><rect x="1640" y="315" width="119" height="3" fill="#3A2A20" opacity="0.07"/><rect x="0" y="360" width="1800" height="2" fill="#3A2A20" opacity="0.07"/><path d="M1080 400 L1728 400 L1692 500 L1116 500 Z" fill="#5E2130" opacity="0.30"/><rect x="0" y="865" width="1800" height="135" fill="#3A2A20" opacity="0.08"/><rect x="0" y="865" width="1800" height="2" fill="#3A2A20" opacity="0.10"/><rect x="1022" y="625" width="32" height="240" rx="14" fill="#C3AE99" opacity="0.75"/><rect x="1020" y="775" width="36" height="90" rx="12" fill="#3A2A20"/><rect x="1096" y="625" width="32" height="240" rx="14" fill="#C3AE99" opacity="0.75"/><rect x="1094" y="775" width="36" height="90" rx="12" fill="#3A2A20"/><ellipse cx="1080" cy="873" rx="110" ry="14" fill="#3A2A20" opacity="0.12"/><path d="M1006 345 C 994 450, 984 570, 976 645 L1184 645 C 1176 570, 1166 450, 1154 345 C 1120 321, 1040 321, 1006 345 Z" fill="#5C4638"/><path d="M1054 331 L1106 331 L1098 645 L1062 645 Z" fill="#3A2A20" opacity="0.35"/><rect x="994" y="475" width="172" height="15" fill="#3A2A20" opacity="0.45"/><rect x="1065" y="285" width="30" height="40" fill="#C3AE99"/><circle cx="1080" cy="255" r="42" fill="#C3AE99"/><path d="M1034 265 C 1028 195, 1132 195, 1126 265 C 1134 325, 1114 335, 1112 295 L1048 295 C 1046 335, 1026 325, 1034 265 Z" fill="#3A2A20"/><path d="M1144 350 C 1168 440, 1164 500, 1150 545" fill="none" stroke="#5C4638" stroke-width="34" stroke-linecap="round"/><path d="M1130 440 C 1154 500, 1180 500, 1186 513" fill="none" stroke="#471824" stroke-width="9" stroke-linecap="round"/><path d="M1112 513 L1260 513 L1248 637 L1124 637 Z" fill="#5E2130"/><path d="M1112 513 L1260 513 L1255 566 L1117 566 Z" fill="#471824"/><circle cx="1548" cy="160" r="200" fill="#FBF7F1" opacity="0.26"/><circle cx="1584" cy="140" r="90" fill="#FBF7F1" opacity="0.22"/><rect width="1800" height="1000" filter="url(#grain)" fill="#3A2A20" opacity="0.5"/></svg>